<svg width="243" height="40" viewBox="0 0 243 40" fill="none" xmlns="http://www.w3.org/2000/svg">
<path d="M4.22998 7.40546L11.9224 2.96094H27.3073L34.9998 7.40546V28.1466L19.6149 37.0356L4.22998 28.1466V7.40546Z" fill="#1D1F22"/>
<path fill-rule="evenodd" clip-rule="evenodd" d="M4.23003 4.44453L11.9225 0H27.3074L34.9998 4.44453V7.40755L27.3074 2.96302H11.9225L4.23065 7.40718V28.1479L19.6156 37.037L35.0005 28.1479V7.40681L37.5646 8.88832V29.6294L19.6156 40L1.6665 29.6294V8.88832L4.23003 7.40717V4.44453ZM14.488 10.3689L11.9239 8.8874V17.7765L19.6163 22.221L27.3088 17.7765V8.8874L24.7446 10.3689V16.2949L19.6163 19.258L14.488 16.2949V10.3689ZM24.7434 22.2242V25.1872L17.0509 29.6318V26.6688L24.7434 22.2242Z" fill="url(#paint0_linear_1315_941)"/>
<g clip-path="url(#clip0_1315_941)">
<path d="M106.545 14.1309H100.99V15.716H106.545L107.933 16.5085V22.8489L106.545 23.6415H100.99V25.2267H106.545L109.322 23.6415V15.716L106.545 14.1309Z" fill="#F4F9FA"/>
<path d="M102.378 16.5074L100.99 15.7148V23.6404L102.378 22.8478V16.5074Z" fill="#F4F9FA"/>
<path d="M91.2686 14.9234L89.8799 14.1309V23.6415L92.6572 25.2267H98.2123V23.6415H92.6572L91.2686 22.8489V14.9234Z" fill="#F4F9FA"/>
<path d="M81.5475 14.1309L78.77 15.716V18.8862L80.1589 18.0936V16.5085L81.5475 15.716H84.3249L85.7137 16.5085L87.1024 15.716L84.3249 14.1309H81.5475Z" fill="#F4F9FA"/>
<path d="M84.3249 18.8863H78.77V20.4714H84.3249L85.7137 21.264V18.0938L84.3249 18.8863Z" fill="#F4F9FA"/>
<path d="M80.1589 21.2633L78.77 20.4707V23.6409L81.5475 25.2261H84.3249L87.1024 23.6409L85.7137 22.8483L84.3249 23.6409H81.5475L80.1589 22.8483V21.2633Z" fill="#F4F9FA"/>
<path d="M69.0488 16.5085V14.9234L70.4375 14.1309H73.215L74.6037 14.9234V16.5085L73.215 15.716H70.4375L69.0488 16.5085Z" fill="#F4F9FA"/>
<path d="M71.8263 16.5076L71.1318 16.1113V23.2443L71.8263 22.848L72.5207 23.2443V16.1113L71.8263 16.5076Z" fill="#F4F9FA"/>
<path d="M69.0488 24.4328V22.8477L70.4375 23.6402H73.215L74.6037 22.8477V24.4328L73.215 25.2254H70.4375L69.0488 24.4328Z" fill="#F4F9FA"/>
<path d="M59.3276 23.6413L63.4938 21.2637V22.8487L59.3276 25.2265V23.6413Z" fill="#F4F9FA"/>
<path d="M56.5503 18.8862V14.1309L57.9391 14.9234V18.0936L60.7165 19.6787L63.494 18.0936V14.9234L64.8827 14.1309V18.8862L60.7165 21.2638L56.5503 18.8862Z" fill="#F4F9FA"/>
<path d="M173.205 14.1309H167.649V15.716H173.205L174.592 16.5085V22.8489L173.205 23.6415H167.649V25.2267H173.205L175.982 23.6415V15.716L173.205 14.1309Z" fill="#F4F9FA"/>
<path d="M169.038 16.5074L167.649 15.7148V23.6404L169.038 22.8478V16.5074Z" fill="#F4F9FA"/>
<path d="M157.927 14.9234L156.539 14.1309V23.6415L159.316 25.2267H164.871V23.6415H159.316L157.927 22.8489V14.9234Z" fill="#F4F9FA"/>
<path d="M146.818 16.5085V14.9234L148.207 14.1309H150.984L152.373 14.9234V16.5085L150.984 15.716H148.207L146.818 16.5085Z" fill="#F4F9FA"/>
<path d="M149.595 16.5076L148.901 16.1113V23.2443L149.595 22.848L150.29 23.2443V16.1113L149.595 16.5076Z" fill="#F4F9FA"/>
<path d="M146.818 24.4328V22.8477L148.207 23.6402H150.984L152.373 22.8477V24.4328L150.984 25.2254H148.207L146.818 24.4328Z" fill="#F4F9FA"/>
<path d="M135.708 14.9234L134.319 14.1309V23.6415L137.097 25.2267H139.874L142.652 23.6415V14.1309L141.263 14.9234V22.8489L139.874 23.6415H137.097L135.708 22.8489V14.9234Z" fill="#F4F9FA"/>
<path d="M128.764 14.1309H125.987L123.209 15.716V23.6415L125.987 25.2267H128.764L131.542 23.6415V20.4713L128.764 18.8862L125.987 20.4713L127.376 21.2638L128.764 20.4713L130.153 21.2638V22.8489L128.764 23.6415H125.987L124.598 22.8489V16.5085L125.987 15.716H128.764L130.153 16.5085L131.542 15.716L128.764 14.1309Z" fill="#F4F9FA"/>
<path d="M239.863 14.1309H237.084L234.307 15.716V18.8862L237.084 20.4713H239.863L241.251 21.2638V22.8489L239.863 23.6415H237.084L235.696 22.8489L234.307 23.6415L237.084 25.2267H239.863L242.64 23.6415V20.4713L239.863 18.8862H237.084L235.696 18.0936V16.5085L237.084 15.716H239.863L241.251 16.5085L242.64 15.716L239.863 14.1309Z" fill="#F4F9FA"/>
<path d="M225.975 14.1309L223.198 15.716V18.8862L224.587 18.0936V16.5085L225.975 15.716H228.753L230.141 16.5085L231.53 15.716L228.753 14.1309H225.975Z" fill="#F4F9FA"/>
<path d="M228.753 18.8863H223.198V20.4714H228.753L230.141 21.264V18.0938L228.753 18.8863Z" fill="#F4F9FA"/>
<path d="M224.587 21.2633L223.198 20.4707V23.6409L225.975 25.2261H228.753L231.53 23.6409L230.141 22.8483L228.753 23.6409H225.975L224.587 22.8483V21.2633Z" fill="#F4F9FA"/>
<path d="M214.865 14.1309L212.088 15.716V25.2418L213.477 24.4341V16.5085L214.865 15.716L215.56 16.1122V20.8676L216.254 21.2638L216.949 20.8676V16.1275L217.644 15.716L219.024 16.5085L219.031 24.4341L220.421 25.2418V15.716L217.644 14.1309L216.254 14.9234L214.865 14.1309Z" fill="#F4F9FA"/>
<path d="M217.658 23.6402L216.254 22.8477L214.85 23.6402L216.254 24.4328L217.658 23.6402Z" fill="#F4F9FA"/>
<path d="M203.755 14.1309L200.978 15.716V18.8862L202.367 18.0936V16.5085L203.755 15.716H206.534L207.921 16.5085V18.0936L209.311 18.8862V15.716L206.534 14.1309H203.755Z" fill="#F4F9FA"/>
<path d="M209.311 18.8848H200.978V20.4699H209.311V18.8848Z" fill="#F4F9FA"/>
<path d="M202.367 21.2633L200.978 20.4707V25.2261L202.367 24.4335V21.2633Z" fill="#F4F9FA"/>
<path d="M207.921 21.2633L209.311 20.4707V25.2261L207.921 24.4335V21.2633Z" fill="#F4F9FA"/>
<path d="M195.424 14.1309H192.645L189.868 15.716V23.6415L192.645 25.2267H195.424L198.201 23.6415V20.4713L195.424 18.8862L192.645 20.4713L194.035 21.2638L195.424 20.4713L196.812 21.2638V22.8489L195.424 23.6415H192.645L191.257 22.8489V16.5085L192.645 15.716H195.424L196.812 16.5085L198.201 15.716L195.424 14.1309Z" fill="#F4F9FA"/>
</g>
<defs>
<linearGradient id="paint0_linear_1315_941" x1="2.21495" y1="7.15" x2="16.0212" y2="41.9543" gradientUnits="userSpaceOnUse">
<stop stop-color="#FDFF85"/>
<stop offset="0.479167" stop-color="#66F6FF"/>
<stop offset="1" stop-color="#CD9BFF"/>
</linearGradient>
<clipPath id="clip0_1315_941">
<rect width="187" height="12" fill="white" transform="translate(56 14)"/>
</clipPath>
</defs>
</svg>
